 0
SECTION
  2
HEADER
  9
$ACADVER
  1
AC1015
  9
$ACADMAINTVER
 70
    20
  9
$DWGCODEPAGE
  3
ANSI_932
  9
$INSBASE
 10
0.0
 20
0.0
 30
0.0
  9
$EXTMIN
10
0.0
20
0.0
30
0.0
9
$EXTMAX
10
21000.0
20
14850.0
30
0.0
9
$LIMMIN
10
0.0
20
0.0
9
$LIMMAX
10
25200.0
20
17820.0
9
$ORTHOMODE
 70
     0
  9
$REGENMODE
 70
     1
  9
$FILLMODE
 70
     1
  9
$QTEXTMODE
 70
     0
  9
$MIRRTEXT
 70
     0
  9
$LTSCALE
 40
1.0
  9
$ATTMODE
 70
     1
  9
$TEXTSIZE
 40
0.2
  9
$TRACEWID
 40
0.05
  9
$TEXTSTYLE
  7
DIMSTANDARD
  9
$CLAYER
  8
0
  9
$CELTYPE
  6
Continuous
  9
$CECOLOR
 62
   256
  9
$CELTSCALE
 40
1.0
  9
$DISPSILH
 70
     0
  9
$DIMSCALE
 40
1.0
  9
$DIMASZ
 40
0.18
  9
$DIMEXO
 40
0.0625
  9
$DIMDLI
 40
0.38
  9
$DIMRND
 40
0.0
  9
$DIMDLE
 40
0.0
  9
$DIMEXE
 40
0.18
  9
$DIMTP
 40
0.0
  9
$DIMTM
 40
0.0
  9
$DIMTXT
 40
0.18
  9
$DIMCEN
 40
0.09
  9
$DIMTSZ
 40
0.0
  9
$DIMTOL
 70
     0
  9
$DIMLIM
 70
     0
  9
$DIMTIH
 70
     1
  9
$DIMTOH
 70
     1
  9
$DIMSE1
 70
     0
  9
$DIMSE2
 70
     0
  9
$DIMTAD
 70
     0
  9
$DIMZIN
 70
     0
  9
$DIMBLK
  1

  9
$DIMASO
 70
     1
  9
$DIMSHO
 70
     1
  9
$DIMPOST
  1

  9
$DIMAPOST
  1

  9
$DIMALT
 70
     0
  9
$DIMALTD
 70
     2
  9
$DIMALTF
 40
25.4
  9
$DIMLFAC
 40
1.0
  9
$DIMTOFL
 70
     0
  9
$DIMTVP
 40
0.0
  9
$DIMTIX
 70
     0
  9
$DIMSOXD
 70
     0
  9
$DIMSAH
 70
     0
  9
$DIMBLK1
  1

  9
$DIMBLK2
  1

  9
$DIMSTYLE
  2
Standard
  9
$DIMCLRD
 70
     0
  9
$DIMCLRE
 70
     0
  9
$DIMCLRT
 70
     0
  9
$DIMTFAC
 40
1.0
  9
$DIMGAP
 40
0.09
  9
$DIMJUST
 70
     0
  9
$DIMSD1
 70
     0
  9
$DIMSD2
 70
     0
  9
$DIMTOLJ
 70
     1
  9
$DIMTZIN
 70
     0
  9
$DIMALTZ
 70
     0
  9
$DIMALTTZ
 70
     0
  9
$DIMUPT
 70
     0
  9
$DIMDEC
 70
     4
  9
$DIMTDEC
 70
     4
  9
$DIMALTU
 70
     2
  9
$DIMALTTD
 70
     2
  9
$DIMTXSTY
  7
Standard
  9
$DIMAUNIT
 70
     0
  9
$DIMADEC
 70
     0
  9
$DIMALTRND
 40
0.0
  9
$DIMAZIN
 70
     0
  9
$DIMDSEP
 70
    46
  9
$DIMATFIT
 70
     3
  9
$DIMFRAC
 70
     0
  9
$DIMLDRBLK
  1

  9
$DIMLUNIT
 70
     2
  9
$DIMLWD
 70
    -2
  9
$DIMLWE
 70
    -2
  9
$DIMTMOVE
 70
     0
  9
$LUNITS
 70
     2
  9
$LUPREC
 70
     4
  9
$SKETCHINC
 40
0.1
  9
$FILLETRAD
 40
0.0
  9
$AUNITS
 70
     0
  9
$AUPREC
 70
     0
  9
$MENU
  1
.
  9
$ELEVATION
 40
0.0
  9
$PELEVATION
 40
0.0
  9
$THICKNESS
 40
0.0
  9
$LIMCHECK
 70
     0
  9
$CHAMFERA
 40
0.0
  9
$CHAMFERB
 40
0.0
  9
$CHAMFERC
 40
0.0
  9
$CHAMFERD
 40
0.0
  9
$SKPOLY
 70
     0
  9
$TDCREATE
 40
2459198.769561898
  9
$TDUCREATE
 40
2459198.394561898
  9
$TDUPDATE
 40
2459198.771185336
  9
$TDUUPDATE
 40
2459198.396185336
  9
$TDINDWG
 40
0.0014492593
  9
$TDUSRTIMER
 40
0.0014490856
  9
$USRTIMER
 70
     1
  9
$ANGBASE
 50
0.0
  9
$ANGDIR
 70
     0
  9
$PDMODE
 70
     0
  9
$PDSIZE
 40
0.0
  9
$PLINEWID
 40
0.0
  9
$SPLFRAME
 70
     0
  9
$SPLINETYPE
 70
     6
  9
$SPLINESEGS
 70
     8
  9
$HANDSEED
  5
88
  9
$SURFTAB1
 70
     6
  9
$SURFTAB2
 70
     6
  9
$SURFTYPE
 70
     6
  9
$SURFU
 70
     6
  9
$SURFV
 70
     6
  9
$UCSBASE
  2

  9
$UCSNAME
  2

  9
$UCSORG
 10
0.0
 20
0.0
 30
0.0
  9
$UCSXDIR
 10
1.0
 20
0.0
 30
0.0
  9
$UCSYDIR
 10
0.0
 20
1.0
 30
0.0
  9
$UCSORTHOREF
  2

  9
$UCSORTHOVIEW
 70
     0
  9
$UCSORGTOP
 10
0.0
 20
0.0
 30
0.0
  9
$UCSORGBOTTOM
 10
0.0
 20
0.0
 30
0.0
  9
$UCSORGLEFT
 10
0.0
 20
0.0
 30
0.0
  9
$UCSORGRIGHT
 10
0.0
 20
0.0
 30
0.0
  9
$UCSORGFRONT
 10
0.0
 20
0.0
 30
0.0
  9
$UCSORGBACK
 10
0.0
 20
0.0
 30
0.0
  9
$PUCSBASE
  2

  9
$PUCSNAME
  2

  9
$PUCSORG
 10
0.0
 20
0.0
 30
0.0
  9
$PUCSXDIR
 10
1.0
 20
0.0
 30
0.0
  9
$PUCSYDIR
 10
0.0
 20
1.0
 30
0.0
  9
$PUCSORTHOREF
  2

  9
$PUCSORTHOVIEW
 70
     0
  9
$PUCSORGTOP
 10
0.0
 20
0.0
 30
0.0
  9
$PUCSORGBOTTOM
 10
0.0
 20
0.0
 30
0.0
  9
$PUCSORGLEFT
 10
0.0
 20
0.0
 30
0.0
  9
$PUCSORGRIGHT
 10
0.0
 20
0.0
 30
0.0
  9
$PUCSORGFRONT
 10
0.0
 20
0.0
 30
0.0
  9
$PUCSORGBACK
 10
0.0
 20
0.0
 30
0.0
  9
$USERI1
 70
     0
  9
$USERI2
 70
     0
  9
$USERI3
 70
     0
  9
$USERI4
 70
     0
  9
$USERI5
 70
     0
  9
$USERR1
 40
0.0
  9
$USERR2
 40
0.0
  9
$USERR3
 40
0.0
  9
$USERR4
 40
0.0
  9
$USERR5
 40
0.0
  9
$WORLDVIEW
 70
     1
  9
$SHADEDGE
 70
     3
  9
$SHADEDIF
 70
    70
  9
$TILEMODE
 70
     1
  9
$MAXACTVP
 70
    64
  9
$PINSBASE
 10
0.0
 20
0.0
 30
0.0
  9
$PLIMCHECK
 70
     0
  9
$PEXTMIN
 10
1.000000000000000E+20
 20
1.000000000000000E+20
 30
1.000000000000000E+20
  9
$PEXTMAX
 10
-1.000000000000000E+20
 20
-1.000000000000000E+20
 30
-1.000000000000000E+20
  9
$PLIMMIN
 10
0.0
 20
0.0
  9
$PLIMMAX
 10
12.0
 20
9.0
  9
$UNITMODE
 70
     0
  9
$VISRETAIN
 70
     1
  9
$PLINEGEN
 70
     0
  9
$PSLTSCALE
 70
     1
  9
$TREEDEPTH
 70
  3020
  9
$CMLSTYLE
  2
Standard
  9
$CMLJUST
 70
     0
  9
$CMLSCALE
 40
1.0
  9
$PROXYGRAPHICS
 70
     1
  9
$MEASUREMENT
 70
     0
  9
$CELWEIGHT
370
    -1
  9
$ENDCAPS
280
     0
  9
$JOINSTYLE
280
     0
  9
$LWDISPLAY
290
     0
  9
$INSUNITS
 70
     0
  9
$HYPERLINKBASE
  1

  9
$STYLESHEET
  1

  9
$XEDIT
290
     1
  9
$CEPSNTYPE
380
     0
  9
$PSTYLEMODE
290
     1
  9
$FINGERPRINTGUID
  2
{68315CFD-F49C-40F0-8814-45FE33FC9483}
  9
$VERSIONGUID
  2
{D8A8B553-77FB-4109-8835-302D291E56A1}
  9
$EXTNAMES
290
     1
  9
$PSVPSCALE
 40
0.0
  9
$OLESTARTUP
290
     0
0
ENDSEC
0
SECTION
  2
CLASSES
  0
CLASS
  1
ACDBDICTIONARYWDFLT
  2
AcDbDictionaryWithDefault
  3
ObjectDBX Classes
 90
        0
280
     0
281
     0
  0
CLASS
  1
MATERIAL
  2
AcDbMaterial
  3
ObjectDBX Classes
 90
     1024
280
     0
281
     0
  0
CLASS
  1
VISUALSTYLE
  2
AcDbVisualStyle
  3
ObjectDBX Classes
 90
     4095
280
     0
281
     0
  0
CLASS
  1
TABLESTYLE
  2
AcDbTableStyle
  3
ObjectDBX Classes
 90
     4095
280
     0
281
     0
  0
CLASS
  1
DICTIONARYVAR
  2
AcDbDictionaryVar
  3
ObjectDBX Classes
 90
        0
280
     0
281
     0
  0
CLASS
  1
ACDBPLACEHOLDER
  2
AcDbPlaceHolder
  3
ObjectDBX Classes
 90
        0
280
     0
281
     0
  0
CLASS
  1
LAYOUT
  2
AcDbLayout
  3
ObjectDBX Classes
 90
        0
280
     0
281
     0
  0
ENDSEC
  0
SECTION
  2
TABLES
  0
TABLE
  2
VPORT
  5
8
330
0
100
AcDbSymbolTable
 70
     1
  0
VPORT
  5
3A
330
8
100
AcDbSymbolTableRecord
100
AcDbViewportTableRecord
  2
*ACTIVE
 70
     0
 10
0.0
 20
0.0
 11
1.0
 21
1.0
 12
10500.0
 22
742.5
 13
0.0
 23
0.0
 14
1.0
 24
1.0
 15
0.0
 25
0.0
 16
0.0
 26
0.0
 36
1.0
 17
0.0
 27
0.0
 37
0.0
 40
126.0
 41
89.1
 42
50.0
 43
0.0
 44
0.0
 50
0.0
 51
0.0
 71
     0
 72
   100
 73
     1
 74
     1
 75
     0
 76
     0
 77
     0
 78
     0
281
     0
 65
     1
110
0.0
120
0.0
130
0.0
111
1.0
121
0.0
131
0.0
112
0.0
122
1.0
132
0.0
 79
     0
146
0.0
  0
ENDTAB
  0
TABLE
  2
LTYPE
  5
5
330
0
100
AcDbSymbolTable
 70
     1
  0
LTYPE
  5
28
330
5
100
AcDbSymbolTableRecord
100
AcDbLinetypeTableRecord
  2
ByBlock
 70
     0
  3

 72
    65
 73
     0
 40
0.0
  0
LTYPE
  5
29
330
5
100
AcDbSymbolTableRecord
100
AcDbLinetypeTableRecord
  2
ByLayer
 70
     0
  3

 72
    65
 73
     0
 40
0.0
  0
LTYPE
  5
2A
330
5
100
AcDbSymbolTableRecord
100
AcDbLinetypeTableRecord
  2
Continuous
 70
     0
  3
Solid line
 72
    65
 73
     0
 40
0.0
  0
ENDTAB
  0
TABLE
  2
LAYER
  5
2
330
0
100
AcDbSymbolTable
 70
     1
  0
LAYER
  5
25
330
2
100
AcDbSymbolTableRecord
100
AcDbLayerTableRecord
  2
0
 70
     0
 62
     7
  6
Continuous
370
    -3
390
F
  0
LAYER
  5
74
330
2
100
AcDbSymbolTableRecord
100
AcDbLayerTableRecord
  2
C-COL-COL1
 70
     0
 62
     7
  6
Continuous
370
    -3
390
F
347
46
  0
LAYER
  5
74
330
2
100
AcDbSymbolTableRecord
100
AcDbLayerTableRecord
  2
C-TTL-FRAM
 70
     0
 62
     7
  6
Continuous
370
    -3
390
F
347
46
  0
ENDTAB
  0
TABLE
  2
STYLE
  5
3
330
0
100
AcDbSymbolTable
 70
     2
  0
STYLE
  5
26
330
3
100
AcDbSymbolTableRecord
100
AcDbTextStyleTableRecord
  2
Standard
 70
     0
 40
0.0
 41
1.0
 50
0.0
 71
     0
 42
0.2
  3

  4

1001
ACAD
1000
@MS Gothic
1071
    32817
  0
STYLE
  5
3B
330
3
100
AcDbSymbolTableRecord
100
AcDbTextStyleTableRecord
  2
DIMSTANDARD
 70
     0
 40
0.0
 41
1.0
 50
0.0
 71
     0
 42
0.2
  3

  4

1001
ACAD
1000
MS Gothic
1071
    32817
  0
ENDTAB
  0
TABLE
  2
VIEW
  5
6
330
0
100
AcDbSymbolTable
 70
     0
  0
ENDTAB
  0
TABLE
  2
UCS
  5
7
330
0
100
AcDbSymbolTable
 70
     0
  0
ENDTAB
  0
TABLE
  2
APPID
  5
9
330
0
100
AcDbSymbolTable
 70
     1
  0
APPID
  5
27
330
9
100
AcDbSymbolTableRecord
100
AcDbRegAppTableRecord
  2
ACAD
 70
     0
  0
ENDTAB
  0
TABLE
  2
DIMSTYLE
  5
A
330
0
100
AcDbSymbolTable
 70
     1
100
AcDbDimStyleTable
 71
     0
  0
DIMSTYLE
105
67
330
A
100
AcDbSymbolTableRecord
100
AcDbDimStyleTableRecord
  2
Standard
 70
     0
340
26
  0
ENDTAB
  0
TABLE
  2
BLOCK_RECORD
  5
1
330
0
100
AcDbSymbolTable
 70
     0
  0
BLOCK_RECORD
  5
36
330
1
100
AcDbSymbolTableRecord
100
AcDbBlockTableRecord
  2
*Model_Space
340
39
  0
BLOCK_RECORD
  5
32
330
1
100
AcDbSymbolTableRecord
100
AcDbBlockTableRecord
  2
*Paper_Space
340
35
  0
ENDTAB
  0
ENDSEC
  0
SECTION
  2
BLOCKS
  0
BLOCK
  5
37
330
36
100
AcDbEntity
  8
0
100
AcDbBlockBegin
  2
*Model_Space
 70
     0
 10
0.0
 20
0.0
 30
0.0
  3
*Model_Space
  1

  0
ENDBLK
  5
38
330
36
100
AcDbEntity
  8
0
100
AcDbBlockEnd
  0
BLOCK
  5
33
330
32
100
AcDbEntity
 67
     1
  8
0
100
AcDbBlockBegin
  2
*Paper_Space
 70
     0
 10
0.0
 20
0.0
 30
0.0
  3
*Paper_Space
  1

  0
ENDBLK
  5
34
330
32
100
AcDbEntity
 67
     1
  8
0
100
AcDbBlockEnd
  0
ENDSEC
0
SECTION
2
ENTITIES
0
HATCH
5
101
100
AcDbEntity
8
C-COL-COL1
62
7
420
14939391
370
-3
100
AcDbHatch
10
0.0
20
0.0
30
0.0
2
SOLID
70
1
71
0
91
1
92
1
93
10
72
1
10
11906.246
20
7604.978                
11
14036.957
21
5493.0923                
72
1
10
14036.957
20
5493.0923                
11
13656.606
21
5168.5405                
72
1
10
13656.606
20
5168.5405                
11
12092.649
21
2608.4546                
72
1
10
12092.649
20
2608.4546                
11
11592.69
21
2614.8206                
72
1
10
11592.69
20
2614.8206                
11
10605.934
21
2777.0195                
72
1
10
10605.934
20
2777.0195                
11
8614.853
21
2588.335                
72
1
10
8614.853
20
2588.335                
11
6963.043
21
8356.4795                
72
1
10
6963.043
20
8356.4795                
11
10085.465
21
12261.667                
72
1
10
10085.465
20
12261.667                
11
11906.246
21
7604.978                
97
0
75
0
76
1
98
1
10
0.0
20
0.0
0
LINE
5
102
330
36
100
AcDbEntity
8
0
100
AcDbLine
370
13
10
10085.465
20
12261.667
30
0.0
11
11906.246
21
7604.978
31
0.0
62
7
0
LINE
5
103
330
36
100
AcDbEntity
8
0
100
AcDbLine
370
13
10
11906.246
20
7604.978
30
0.0
11
6963.044
21
8356.4795
31
0.0
62
7
0
LINE
5
104
330
36
100
AcDbEntity
8
0
100
AcDbLine
370
13
10
6963.044
20
8356.4795
30
0.0
11
10085.465
21
12261.667
31
0.0
62
7
0
TEXT
5
105
330
36
100
AcDbEntity
8
0
62
7
100
AcDbText
10
10995.855
20
9933.323
30
0.0
40
400
1
5.00
41
1.00
7
DimStandard
72
1
11
10995.855
21
9933.323
31
0.0
50
291.35565
51
0.0
100
AcDbText
73
3
0
TEXT
5
106
330
36
100
AcDbEntity
8
0
62
7
100
AcDbText
10
9434.645
20
7980.729
30
0.0
40
400
1
5.00
41
1.00
7
DimStandard
72
1
11
9434.645
21
7980.729
31
0.0
50
351.35565
51
0.0
100
AcDbText
73
1
0
TEXT
5
107
330
36
100
AcDbEntity
8
0
62
7
100
AcDbText
10
8524.254
20
10309.073
30
0.0
40
400
1
5.00
41
1.00
7
DimStandard
72
1
11
8524.254
21
10309.073
31
0.0
50
51.355667
51
0.0
100
AcDbText
73
1
0
CIRCLE
5
108
330
36
100
AcDbEntity
8
0
62
5
370
13
100
AcDbCircle
10
9651.585
20
9407.708
30
0.0
40
400.0 
0
TEXT
5
109
330
36
100
AcDbEntity
8
0
62
5
100
AcDbText
10
9651.585
20
9407.708
30
0.0
40
400
1
1
41
1.00
7
DimStandard
72
1
11
9651.585
21
9407.708
31
0.0
50
0.0
51
0.0
100
AcDbText
73
2
0
LINE
5
110
330
36
100
AcDbEntity
8
0
100
AcDbLine
370
13
10
6963.043
20
8356.4795
30
0.0
11
11906.244
21
7604.9766
31
0.0
62
7
0
LINE
5
111
330
36
100
AcDbEntity
8
0
100
AcDbLine
370
13
10
11906.244
20
7604.9766
30
0.0
11
8614.85
21
2588.3323
31
0.0
62
7
0
LINE
5
112
330
36
100
AcDbEntity
8
0
100
AcDbLine
370
13
10
8614.85
20
2588.3323
30
0.0
11
6963.043
21
8356.4795
31
0.0
62
7
0
TEXT
5
113
330
36
100
AcDbEntity
8
0
62
7
100
AcDbText
10
10260.548
20
5096.6543
30
0.0
40
400
1
6.00
41
1.00
7
DimStandard
72
1
11
10260.548
21
5096.6543
31
0.0
50
56.731327
51
0.0
100
AcDbText
73
3
0
TEXT
5
114
330
36
100
AcDbEntity
8
0
62
7
100
AcDbText
10
7788.9463
20
5472.4062
30
0.0
40
400
1
6.00
41
1.00
7
DimStandard
72
1
11
7788.9463
21
5472.4062
31
0.0
50
285.97998
51
0.0
100
AcDbText
73
3
0
CIRCLE
5
115
330
36
100
AcDbEntity
8
0
62
5
370
13
100
AcDbCircle
10
9161.379
20
6183.263
30
0.0
40
400.0 
0
TEXT
5
116
330
36
100
AcDbEntity
8
0
62
5
100
AcDbText
10
9161.379
20
6183.263
30
0.0
40
400
1
2
41
1.00
7
DimStandard
72
1
11
9161.379
21
6183.263
31
0.0
50
0.0
51
0.0
100
AcDbText
73
2
0
LINE
5
117
330
36
100
AcDbEntity
8
0
100
AcDbLine
370
13
10
8614.853
20
2588.335
30
0.0
11
11906.246
21
7604.98
31
0.0
62
7
0
LINE
5
118
330
36
100
AcDbEntity
8
0
100
AcDbLine
370
13
10
11906.246
20
7604.98
30
0.0
11
10605.933
21
2777.0215
31
0.0
62
7
0
LINE
5
119
330
36
100
AcDbEntity
8
0
100
AcDbLine
370
13
10
10605.933
20
2777.0215
30
0.0
11
8614.853
21
2588.335
31
0.0
62
7
0
TEXT
5
120
330
36
100
AcDbEntity
8
0
62
7
100
AcDbText
10
11256.089
20
5191.001
30
0.0
40
400
1
5.00
41
1.00
7
DimStandard
72
1
11
11256.089
21
5191.001
31
0.0
50
74.92621
51
0.0
100
AcDbText
73
1
0
TEXT
5
121
330
36
100
AcDbEntity
8
0
62
7
100
AcDbText
10
9610.393
20
2682.6782
30
0.0
40
400
1
2.00
41
1.00
7
DimStandard
72
1
11
9610.393
21
2682.6782
31
0.0
50
5.413521
51
0.0
100
AcDbText
73
1
0
CIRCLE
5
122
330
36
100
AcDbEntity
8
0
62
5
370
13
100
AcDbCircle
10
9916.507
20
3338.9854
30
0.0
40
400.0 
0
TEXT
5
123
330
36
100
AcDbEntity
8
0
62
5
100
AcDbText
10
9916.507
20
3338.9854
30
0.0
40
400
1
3
41
1.00
7
DimStandard
72
1
11
9916.507
21
3338.9854
31
0.0
50
0.0
51
0.0
100
AcDbText
73
2
0
LINE
5
124
330
36
100
AcDbEntity
8
0
100
AcDbLine
370
13
10
10605.934
20
2777.0195
30
0.0
11
11906.246
21
7604.978
31
0.0
62
7
0
LINE
5
125
330
36
100
AcDbEntity
8
0
100
AcDbLine
370
13
10
11906.246
20
7604.978
30
0.0
11
11592.691
21
2614.8196
31
0.0
62
7
0
LINE
5
126
330
36
100
AcDbEntity
8
0
100
AcDbLine
370
13
10
11592.691
20
2614.8196
30
0.0
11
10605.934
21
2777.0195
31
0.0
62
7
0
TEXT
5
127
330
36
100
AcDbEntity
8
0
62
7
100
AcDbText
10
11749.469
20
5109.8984
30
0.0
40
400
1
5.00
41
1.00
7
DimStandard
72
1
11
11749.469
21
5109.8984
31
0.0
50
86.40457
51
0.0
100
AcDbText
73
3
0
TEXT
5
128
330
36
100
AcDbEntity
8
0
62
7
100
AcDbText
10
11099.312
20
2695.919
30
0.0
40
400
1
1.00
41
1.00
7
DimStandard
72
1
11
11099.312
21
2695.919
31
0.0
50
350.6654
51
0.0
100
AcDbText
73
3
0
CIRCLE
5
129
330
36
100
AcDbEntity
8
0
62
5
370
13
100
AcDbCircle
10
11206.903
20
3350.4602
30
0.0
40
400.0 
0
TEXT
5
130
330
36
100
AcDbEntity
8
0
62
5
100
AcDbText
10
11206.903
20
3350.4602
30
0.0
40
400
1
4
41
1.00
7
DimStandard
72
1
11
11206.903
21
3350.4602
31
0.0
50
0.0
51
0.0
100
AcDbText
73
2
0
LINE
5
131
330
36
100
AcDbEntity
8
0
100
AcDbLine
370
13
10
11592.69
20
2614.8206
30
0.0
11
11906.244
21
7604.979
31
0.0
62
7
0
LINE
5
132
330
36
100
AcDbEntity
8
0
100
AcDbLine
370
13
10
11906.244
20
7604.979
30
0.0
11
12092.649
21
2608.4546
31
0.0
62
7
0
LINE
5
133
330
36
100
AcDbEntity
8
0
100
AcDbLine
370
13
10
12092.649
20
2608.4546
30
0.0
11
11592.69
21
2614.8206
31
0.0
62
7
0
TEXT
5
134
330
36
100
AcDbEntity
8
0
62
7
100
AcDbText
10
11999.447
20
5106.7173
30
0.0
40
400
1
5.00
41
1.00
7
DimStandard
72
1
11
11999.447
21
5106.7173
31
0.0
50
272.13654
51
0.0
100
AcDbText
73
1
0
TEXT
5
135
330
36
100
AcDbEntity
8
0
62
7
100
AcDbText
10
11842.671
20
2611.6372
30
0.0
40
400
1
0.50
41
1.00
7
DimStandard
72
1
11
11842.671
21
2611.6372
31
0.0
50
359.2705
51
0.0
100
AcDbText
73
3
0
CIRCLE
5
136
330
36
100
AcDbEntity
8
0
62
5
370
13
100
AcDbCircle
10
11851.1455
20
3277.4167
30
0.0
40
400.0 
0
TEXT
5
137
330
36
100
AcDbEntity
8
0
62
5
100
AcDbText
10
11851.1455
20
3277.4167
30
0.0
40
400
1
5
41
1.00
7
DimStandard
72
1
11
11851.1455
21
3277.4167
31
0.0
50
0.0
51
0.0
100
AcDbText
73
2
0
LINE
5
138
330
36
100
AcDbEntity
8
0
100
AcDbLine
370
13
10
12092.649
20
2608.4546
30
0.0
11
11906.245
21
7604.979
31
0.0
62
7
0
LINE
5
139
330
36
100
AcDbEntity
8
0
100
AcDbLine
370
13
10
11906.245
20
7604.979
30
0.0
11
13656.606
21
5168.5405
31
0.0
62
7
0
LINE
5
140
330
36
100
AcDbEntity
8
0
100
AcDbLine
370
13
10
13656.606
20
5168.5405
30
0.0
11
12092.649
21
2608.4546
31
0.0
62
7
0
TEXT
5
141
330
36
100
AcDbEntity
8
0
62
7
100
AcDbText
10
14560.961
20
3909.7139
30
0.0
40
400
1
3.00
41
1.00
7
DimStandard
72
1
11
14560.961
21
3909.7139
31
0.0
50
305.69385
51
0.0
100
AcDbText
73
3
0
TEXT
5
142
330
36
100
AcDbEntity
8
0
62
7
100
AcDbText
10
12874.628
20
3888.4973
30
0.0
40
400
1
3.00
41
1.00
7
DimStandard
72
1
11
12874.628
21
3888.4973
31
0.0
50
58.57923
51
0.0
100
AcDbText
73
1
0
LINE
5
143
330
36
100
AcDbEntity
8
0
100
AcDbLine
370
13
10
13831.644
20
4924.8965
30
0.0
11
15115.242
21
3138.175
31
0.0
62
7
0
CIRCLE
5
144
330
36
100
AcDbEntity
8
0
62
5
370
13
100
AcDbCircle
10
12551.834
20
5127.325
30
0.0
40
400.0 
0
TEXT
5
145
330
36
100
AcDbEntity
8
0
62
5
100
AcDbText
10
12551.834
20
5127.325
30
0.0
40
400
1
6
41
1.00
7
DimStandard
72
1
11
12551.834
21
5127.325
31
0.0
50
0.0
51
0.0
100
AcDbText
73
2
0
LINE
5
146
330
36
100
AcDbEntity
8
0
100
AcDbLine
370
13
10
13656.606
20
5168.5405
30
0.0
11
11906.245
21
7604.979
31
0.0
62
7
0
LINE
5
147
330
36
100
AcDbEntity
8
0
100
AcDbLine
370
13
10
11906.245
20
7604.979
30
0.0
11
14036.957
21
5493.0923
31
0.0
62
7
0
LINE
5
148
330
36
100
AcDbEntity
8
0
100
AcDbLine
370
13
10
14036.957
20
5493.0923
30
0.0
11
13656.606
21
5168.5405
31
0.0
62
7
0
TEXT
5
149
330
36
100
AcDbEntity
8
0
62
7
100
AcDbText
10
12971.602
20
6549.0356
30
0.0
40
400
1
3.00
41
1.00
7
DimStandard
72
1
11
12971.602
21
6549.0356
31
0.0
50
315.2542
51
0.0
100
AcDbText
73
1
0
TEXT
5
150
330
36
100
AcDbEntity
8
0
62
7
100
AcDbText
10
13846.781
20
5330.8164
30
0.0
40
400
1
0.50
41
1.00
7
DimStandard
72
1
11
13846.781
21
5330.8164
31
0.0
50
40.474026
51
0.0
100
AcDbText
73
3
0
CIRCLE
5
151
330
36
100
AcDbEntity
8
0
62
5
370
13
100
AcDbCircle
10
13588.043
20
5634.038
30
0.0
40
400.0 
0
TEXT
5
152
330
36
100
AcDbEntity
8
0
62
5
100
AcDbText
10
13588.043
20
5634.038
30
0.0
40
400
1
7
41
1.00
7
DimStandard
72
1
11
13588.043
21
5634.038
31
0.0
50
0.0
51
0.0
100
AcDbText
73
2
0
LWPOLYLINE
5
153
100
AcDbEntity
8
C-COL-COL1
100
AcDbPolyline
370
13
90
10
70
1
43
0.0
10
11906.246
20
7604.978                
10
14036.957
20
5493.0923                
10
13656.606
20
5168.5405                
10
12092.649
20
2608.4546                
10
11592.69
20
2614.8206                
10
10605.934
20
2777.0195                
10
8614.853
20
2588.335                
10
6963.043
20
8356.4795                
10
10085.465
20
12261.667                
10
11906.246
20
7604.978                
0
LINE
5
154
330
36
100
AcDbEntity
8
C-TTL-FRAM
100
AcDbLine
370
13
10
500.0
20
675.0002
30
0.0
11
20500.0
21
675.0002
31
0.0
62
7
0
LINE
5
155
330
36
100
AcDbEntity
8
C-TTL-FRAM
100
AcDbLine
370
13
10
500.0
20
14175.0
30
0.0
11
20500.0
21
14175.0
31
0.0
62
7
0
LINE
5
156
330
36
100
AcDbEntity
8
C-TTL-FRAM
100
AcDbLine
370
13
10
500.0
20
675.0002
30
0.0
11
500.0
21
14175.0
31
0.0
62
7
0
LINE
5
157
330
36
100
AcDbEntity
8
C-TTL-FRAM
100
AcDbLine
370
13
10
20500.0
20
675.0002
30
0.0
11
20500.0
21
14175.0
31
0.0
62
7
0
TEXT
5
158
330
36
100
AcDbEntity
8
C-TTL-FRAM
62
7
100
AcDbText
10
10500.0
20
13550.0
30
0.0
40
200
1
ñ  êœ ìW äJ ê}
41
1.00
7
DimStandard
72
1
11
10500.0
21
13550.0
31
0.0
50
0.0
51
0.0
100
AcDbText
73
1
0
TEXT
5
159
330
36
100
AcDbEntity
8
C-TTL-FRAM
62
7
100
AcDbText
10
10500.0
20
13000.0
30
0.0
40
200
1
êVãKòHê¸
41
1.00
7
DimStandard
72
1
11
10500.0
21
13000.0
31
0.0
50
0.0
51
0.0
100
AcDbText
73
1
0
LINE
5
160
330
36
100
AcDbEntity
8
C-TTL-FRAM
100
AcDbLine
370
13
10
9500.0
20
13500.0
30
0.0
11
11500.0
21
13500.0
31
0.0
62
7
0
LINE
5
161
330
36
100
AcDbEntity
8
C-TTL-FRAM
100
AcDbLine
370
13
10
9500.0
20
13450.0
30
0.0
11
11500.0
21
13450.0
31
0.0
62
7
0
LINE
5
162
330
36
100
AcDbEntity
8
C-TTL-FRAM
100
AcDbLine
370
13
10
15500.0
20
3675.0
30
0.0
11
20500.0
21
3675.0
31
0.0
62
7
0
LINE
5
163
330
36
100
AcDbEntity
8
C-TTL-FRAM
100
AcDbLine
370
13
10
15500.0
20
675.0
30
0.0
11
15500.0
21
3675.0
31
0.0
62
7
0
LINE
5
164
330
36
100
AcDbEntity
8
C-TTL-FRAM
100
AcDbLine
370
13
10
16500.0
20
675.0
30
0.0
11
16500.0
21
3675.0
31
0.0
62
7
0
LINE
5
165
330
36
100
AcDbEntity
8
C-TTL-FRAM
100
AcDbLine
370
13
10
15500.0
20
3175.0
30
0.0
11
20500.0
21
3175.0
31
0.0
62
7
0
LINE
5
166
330
36
100
AcDbEntity
8
C-TTL-FRAM
100
AcDbLine
370
13
10
15500.0
20
2675.0
30
0.0
11
20500.0
21
2675.0
31
0.0
62
7
0
LINE
5
167
330
36
100
AcDbEntity
8
C-TTL-FRAM
100
AcDbLine
370
13
10
15500.0
20
2175.0
30
0.0
11
20500.0
21
2175.0
31
0.0
62
7
0
LINE
5
168
330
36
100
AcDbEntity
8
C-TTL-FRAM
100
AcDbLine
370
13
10
15500.0
20
1675.0
30
0.0
11
20500.0
21
1675.0
31
0.0
62
7
0
LINE
5
169
330
36
100
AcDbEntity
8
C-TTL-FRAM
100
AcDbLine
370
13
10
15500.0
20
1175.0
30
0.0
11
20500.0
21
1175.0
31
0.0
62
7
0
LINE
5
170
330
36
100
AcDbEntity
8
C-TTL-FRAM
100
AcDbLine
370
13
10
18000.0
20
1175.0
30
0.0
11
18000.0
21
1675.0
31
0.0
62
7
0
LINE
5
171
330
36
100
AcDbEntity
8
C-TTL-FRAM
100
AcDbLine
370
13
10
19000.0
20
1175.0
30
0.0
11
19000.0
21
1675.0
31
0.0
62
7
0
TEXT
5
172
330
36
100
AcDbEntity
8
C-TTL-FRAM
62
7
100
AcDbText
10
16000.0
20
3350.0
30
0.0
40
125
1
çH éñ ñº
41
1.00
7
DimStandard
72
1
11
16000.0
21
3350.0
31
0.0
50
0.0
51
0.0
100
AcDbText
73
0
0
TEXT
5
173
330
36
100
AcDbEntity
8
C-TTL-FRAM
62
7
100
AcDbText
10
16000.0
20
2850.0
30
0.0
40
125
1
ê} ñ  ñº
41
1.00
7
DimStandard
72
1
11
16000.0
21
2850.0
31
0.0
50
0.0
51
0.0
100
AcDbText
73
0
0
TEXT
5
174
330
36
100
AcDbEntity
8
C-TTL-FRAM
62
7
100
AcDbText
10
16000.0
20
2350.0
30
0.0
40
125
1
òH ê¸ ñº
41
1.00
7
DimStandard
72
1
11
16000.0
21
2350.0
31
0.0
50
0.0
51
0.0
100
AcDbText
73
0
0
TEXT
5
175
330
36
100
AcDbEntity
8
C-TTL-FRAM
62
7
100
AcDbText
10
16000.0
20
1850.0
30
0.0
40
125
1
çÏ ê¨ ì˙
41
1.00
7
DimStandard
72
1
11
16000.0
21
1850.0
31
0.0
50
0.0
51
0.0
100
AcDbText
73
0
0
TEXT
5
176
330
36
100
AcDbEntity
8
C-TTL-FRAM
62
7
100
AcDbText
10
16000.0
20
1350.0
30
0.0
40
125
1
èk é⁄
41
1.00
7
DimStandard
72
1
11
16000.0
21
1350.0
31
0.0
50
0.0
51
0.0
100
AcDbText
73
0
0
TEXT
5
177
330
36
100
AcDbEntity
8
C-TTL-FRAM
62
7
100
AcDbText
10
18500.0
20
1350.0
30
0.0
40
125
1
ê}ñ î‘çÜ
41
1.00
7
DimStandard
72
1
11
18500.0
21
1350.0
31
0.0
50
0.0
51
0.0
100
AcDbText
73
0
0
TEXT
5
178
330
36
100
AcDbEntity
8
C-TTL-FRAM
62
7
100
AcDbText
10
16000.0
20
850.0
30
0.0
40
125
1
é{ çH é“
41
1.00
7
DimStandard
72
1
11
16000.0
21
850.0
31
0.0
50
0.0
51
0.0
100
AcDbText
73
0
0
TEXT
5
179
330
36
100
AcDbEntity
8
C-TTL-FRAM
62
7
100
AcDbText
10
4000.0
20
500.0
30
0.0
40
125
1
http://trianglelist.home.blog
41
1.00
7
DimStandard
72
1
11
4000.0
21
500.0
31
0.0
50
0.0
51
0.0
100
AcDbText
73
0
0
TEXT
5
180
330
36
100
AcDbEntity
8
C-TTL-FRAM
62
7
100
AcDbText
10
16750.0
20
2850.0
30
0.0
40
125
1
ñ  êœ ìW äJ ê}
41
1.00
7
DimStandard
72
0
11
16750.0
21
2850.0
31
0.0
50
0.0
51
0.0
100
AcDbText
73
0
0
TEXT
5
181
330
36
100
AcDbEntity
8
C-TTL-FRAM
62
7
100
AcDbText
10
16750.0
20
2350.0
30
0.0
40
125
1
êVãKòHê¸
41
1.00
7
DimStandard
72
0
11
16750.0
21
2350.0
31
0.0
50
0.0
51
0.0
100
AcDbText
73
0
0
TEXT
5
182
330
36
100
AcDbEntity
8
C-TTL-FRAM
62
7
100
AcDbText
10
16750.0
20
1850.0
30
0.0
40
125
1
2023 îN 12 åé 25 ì˙
41
1.00
7
DimStandard
72
0
11
16750.0
21
1850.0
31
0.0
50
0.0
51
0.0
100
AcDbText
73
0
0
TEXT
5
183
330
36
100
AcDbEntity
8
C-TTL-FRAM
62
7
100
AcDbText
10
17250.0
20
1350.0
30
0.0
40
125
1
1/50 (A3)
41
1.00
7
DimStandard
72
1
11
17250.0
21
1350.0
31
0.0
50
0.0
51
0.0
100
AcDbText
73
0
0
TEXT
5
184
330
36
100
AcDbEntity
8
C-TTL-FRAM
62
7
100
AcDbText
10
19750.0
20
1350.0
30
0.0
40
125
1
1/1
41
1.00
7
DimStandard
72
1
11
19750.0
21
1350.0
31
0.0
50
0.0
51
0.0
100
AcDbText
73
0
0
TEXT
5
185
330
36
100
AcDbEntity
8
C-TTL-FRAM
62
7
100
AcDbText
10
16750.0
20
850.0
30
0.0
40
125
1

41
1.00
7
DimStandard
72
0
11
16750.0
21
850.0
31
0.0
50
0.0
51
0.0
100
AcDbText
73
0
0
LINE
5
186
330
36
100
AcDbEntity
8
C-TTL-FRAM
100
AcDbLine
370
13
10
21300.0
20
14296.0
30
0.0
11
33300.0
21
14296.0
31
0.0
62
7
0
TEXT
5
187
330
36
100
AcDbEntity
8
C-TTL-FRAM
62
7
100
AcDbText
10
22500.0
20
13500.0
30
0.0
40
400
1
î‘çÜ
41
1.00
7
DimStandard
72
1
11
22500.0
21
13500.0
31
0.0
50
0.0
51
0.0
100
AcDbText
73
1
0
TEXT
5
188
330
36
100
AcDbEntity
8
C-TTL-FRAM
62
7
100
AcDbText
10
29700.0
20
13500.0
30
0.0
40
400
1
ï”í∑Çb(m)
41
1.00
7
DimStandard
72
1
11
29700.0
21
13500.0
31
0.0
50
0.0
51
0.0
100
AcDbText
73
1
0
TEXT
5
189
330
36
100
AcDbEntity
8
C-TTL-FRAM
62
7
100
AcDbText
10
24900.0
20
13500.0
30
0.0
40
400
1
ï”í∑Ç`(m)
41
1.00
7
DimStandard
72
1
11
24900.0
21
13500.0
31
0.0
50
0.0
51
0.0
100
AcDbText
73
1
0
TEXT
5
190
330
36
100
AcDbEntity
8
C-TTL-FRAM
62
7
100
AcDbText
10
27300.0
20
13500.0
30
0.0
40
400
1
ï”í∑Ça(m)
41
1.00
7
DimStandard
72
1
11
27300.0
21
13500.0
31
0.0
50
0.0
51
0.0
100
AcDbText
73
1
0
TEXT
5
191
330
36
100
AcDbEntity
8
C-TTL-FRAM
62
7
100
AcDbText
10
32099.998
20
13500.0
30
0.0
40
400
1
ñ êœ(m2)
41
1.00
7
DimStandard
72
1
11
32099.998
21
13500.0
31
0.0
50
0.0
51
0.0
100
AcDbText
73
1
0
LINE
5
192
330
36
100
AcDbEntity
8
C-TTL-FRAM
100
AcDbLine
370
13
10
21300.0
20
13496.0
30
0.0
11
33300.0
21
13496.0
31
0.0
62
7
0
LINE
5
193
330
36
100
AcDbEntity
8
C-TTL-FRAM
100
AcDbLine
370
13
10
21300.0
20
14296.0
30
0.0
11
21300.0
21
13496.0
31
0.0
62
7
0
LINE
5
194
330
36
100
AcDbEntity
8
C-TTL-FRAM
100
AcDbLine
370
13
10
33300.0
20
14296.0
30
0.0
11
33300.0
21
13496.0
31
0.0
62
7
0
TEXT
5
195
330
36
100
AcDbEntity
8
C-TTL-FRAM
62
7
100
AcDbText
10
22500.0
20
12700.0
30
0.0
40
400
1
1
41
1.00
7
DimStandard
72
1
11
22500.0
21
12700.0
31
0.0
50
0.0
51
0.0
100
AcDbText
73
1
0
TEXT
5
196
330
36
100
AcDbEntity
8
C-TTL-FRAM
62
7
100
AcDbText
10
27300.0
20
12700.0
30
0.0
40
400
1
5.00
41
1.00
7
DimStandard
72
1
11
27300.0
21
12700.0
31
0.0
50
0.0
51
0.0
100
AcDbText
73
1
0
TEXT
5
197
330
36
100
AcDbEntity
8
C-TTL-FRAM
62
7
100
AcDbText
10
29700.0
20
12700.0
30
0.0
40
400
1
5.00
41
1.00
7
DimStandard
72
1
11
29700.0
21
12700.0
31
0.0
50
0.0
51
0.0
100
AcDbText
73
1
0
TEXT
5
198
330
36
100
AcDbEntity
8
C-TTL-FRAM
62
7
100
AcDbText
10
24900.0
20
12700.0
30
0.0
40
400
1
5.00
41
1.00
7
DimStandard
72
1
11
24900.0
21
12700.0
31
0.0
50
0.0
51
0.0
100
AcDbText
73
1
0
TEXT
5
199
330
36
100
AcDbEntity
8
C-TTL-FRAM
62
7
100
AcDbText
10
32099.998
20
12700.0
30
0.0
40
400
1
10.83
41
1.00
7
DimStandard
72
1
11
32099.998
21
12700.0
31
0.0
50
0.0
51
0.0
100
AcDbText
73
1
0
LINE
5
200
330
36
100
AcDbEntity
8
C-TTL-FRAM
100
AcDbLine
370
13
10
21300.0
20
12696.0
30
0.0
11
33300.0
21
12696.0
31
0.0
62
7
0
LINE
5
201
330
36
100
AcDbEntity
8
C-TTL-FRAM
100
AcDbLine
370
13
10
21300.0
20
13496.0
30
0.0
11
21300.0
21
12696.0
31
0.0
62
7
0
LINE
5
202
330
36
100
AcDbEntity
8
C-TTL-FRAM
100
AcDbLine
370
13
10
33300.0
20
13496.0
30
0.0
11
33300.0
21
12696.0
31
0.0
62
7
0
TEXT
5
203
330
36
100
AcDbEntity
8
C-TTL-FRAM
62
7
100
AcDbText
10
22500.0
20
11900.0
30
0.0
40
400
1
2
41
1.00
7
DimStandard
72
1
11
22500.0
21
11900.0
31
0.0
50
0.0
51
0.0
100
AcDbText
73
1
0
TEXT
5
204
330
36
100
AcDbEntity
8
C-TTL-FRAM
62
7
100
AcDbText
10
27300.0
20
11900.0
30
0.0
40
400
1
6.00
41
1.00
7
DimStandard
72
1
11
27300.0
21
11900.0
31
0.0
50
0.0
51
0.0
100
AcDbText
73
1
0
TEXT
5
205
330
36
100
AcDbEntity
8
C-TTL-FRAM
62
7
100
AcDbText
10
29700.0
20
11900.0
30
0.0
40
400
1
6.00
41
1.00
7
DimStandard
72
1
11
29700.0
21
11900.0
31
0.0
50
0.0
51
0.0
100
AcDbText
73
1
0
TEXT
5
206
330
36
100
AcDbEntity
8
C-TTL-FRAM
62
7
100
AcDbText
10
24900.0
20
11900.0
30
0.0
40
400
1
5.00
41
1.00
7
DimStandard
72
1
11
24900.0
21
11900.0
31
0.0
50
0.0
51
0.0
100
AcDbText
73
1
0
TEXT
5
207
330
36
100
AcDbEntity
8
C-TTL-FRAM
62
7
100
AcDbText
10
32099.998
20
11900.0
30
0.0
40
400
1
13.64
41
1.00
7
DimStandard
72
1
11
32099.998
21
11900.0
31
0.0
50
0.0
51
0.0
100
AcDbText
73
1
0
LINE
5
208
330
36
100
AcDbEntity
8
C-TTL-FRAM
100
AcDbLine
370
13
10
21300.0
20
11896.0
30
0.0
11
33300.0
21
11896.0
31
0.0
62
7
0
LINE
5
209
330
36
100
AcDbEntity
8
C-TTL-FRAM
100
AcDbLine
370
13
10
21300.0
20
12696.0
30
0.0
11
21300.0
21
11896.0
31
0.0
62
7
0
LINE
5
210
330
36
100
AcDbEntity
8
C-TTL-FRAM
100
AcDbLine
370
13
10
33300.0
20
12696.0
30
0.0
11
33300.0
21
11896.0
31
0.0
62
7
0
TEXT
5
211
330
36
100
AcDbEntity
8
C-TTL-FRAM
62
7
100
AcDbText
10
22500.0
20
11099.999
30
0.0
40
400
1
3
41
1.00
7
DimStandard
72
1
11
22500.0
21
11099.999
31
0.0
50
0.0
51
0.0
100
AcDbText
73
1
0
TEXT
5
212
330
36
100
AcDbEntity
8
C-TTL-FRAM
62
7
100
AcDbText
10
27300.0
20
11099.999
30
0.0
40
400
1
5.00
41
1.00
7
DimStandard
72
1
11
27300.0
21
11099.999
31
0.0
50
0.0
51
0.0
100
AcDbText
73
1
0
TEXT
5
213
330
36
100
AcDbEntity
8
C-TTL-FRAM
62
7
100
AcDbText
10
29700.0
20
11099.999
30
0.0
40
400
1
2.00
41
1.00
7
DimStandard
72
1
11
29700.0
21
11099.999
31
0.0
50
0.0
51
0.0
100
AcDbText
73
1
0
TEXT
5
214
330
36
100
AcDbEntity
8
C-TTL-FRAM
62
7
100
AcDbText
10
24900.0
20
11099.999
30
0.0
40
400
1
6.00
41
1.00
7
DimStandard
72
1
11
24900.0
21
11099.999
31
0.0
50
0.0
51
0.0
100
AcDbText
73
1
0
TEXT
5
215
330
36
100
AcDbEntity
8
C-TTL-FRAM
62
7
100
AcDbText
10
32099.998
20
11099.999
30
0.0
40
400
1
4.68
41
1.00
7
DimStandard
72
1
11
32099.998
21
11099.999
31
0.0
50
0.0
51
0.0
100
AcDbText
73
1
0
LINE
5
216
330
36
100
AcDbEntity
8
C-TTL-FRAM
100
AcDbLine
370
13
10
21300.0
20
11096.0
30
0.0
11
33300.0
21
11096.0
31
0.0
62
7
0
LINE
5
217
330
36
100
AcDbEntity
8
C-TTL-FRAM
100
AcDbLine
370
13
10
21300.0
20
11896.0
30
0.0
11
21300.0
21
11096.0
31
0.0
62
7
0
LINE
5
218
330
36
100
AcDbEntity
8
C-TTL-FRAM
100
AcDbLine
370
13
10
33300.0
20
11896.0
30
0.0
11
33300.0
21
11096.0
31
0.0
62
7
0
TEXT
5
219
330
36
100
AcDbEntity
8
C-TTL-FRAM
62
7
100
AcDbText
10
22500.0
20
10299.999
30
0.0
40
400
1
4
41
1.00
7
DimStandard
72
1
11
22500.0
21
10299.999
31
0.0
50
0.0
51
0.0
100
AcDbText
73
1
0
TEXT
5
220
330
36
100
AcDbEntity
8
C-TTL-FRAM
62
7
100
AcDbText
10
27300.0
20
10299.999
30
0.0
40
400
1
5.00
41
1.00
7
DimStandard
72
1
11
27300.0
21
10299.999
31
0.0
50
0.0
51
0.0
100
AcDbText
73
1
0
TEXT
5
221
330
36
100
AcDbEntity
8
C-TTL-FRAM
62
7
100
AcDbText
10
29700.0
20
10299.999
30
0.0
40
400
1
1.00
41
1.00
7
DimStandard
72
1
11
29700.0
21
10299.999
31
0.0
50
0.0
51
0.0
100
AcDbText
73
1
0
TEXT
5
222
330
36
100
AcDbEntity
8
C-TTL-FRAM
62
7
100
AcDbText
10
24900.0
20
10299.999
30
0.0
40
400
1
5.00
41
1.00
7
DimStandard
72
1
11
24900.0
21
10299.999
31
0.0
50
0.0
51
0.0
100
AcDbText
73
1
0
TEXT
5
223
330
36
100
AcDbEntity
8
C-TTL-FRAM
62
7
100
AcDbText
10
32099.998
20
10299.999
30
0.0
40
400
1
2.49
41
1.00
7
DimStandard
72
1
11
32099.998
21
10299.999
31
0.0
50
0.0
51
0.0
100
AcDbText
73
1
0
LINE
5
224
330
36
100
AcDbEntity
8
C-TTL-FRAM
100
AcDbLine
370
13
10
21300.0
20
10296.0
30
0.0
11
33300.0
21
10296.0
31
0.0
62
7
0
LINE
5
225
330
36
100
AcDbEntity
8
C-TTL-FRAM
100
AcDbLine
370
13
10
21300.0
20
11096.0
30
0.0
11
21300.0
21
10296.0
31
0.0
62
7
0
LINE
5
226
330
36
100
AcDbEntity
8
C-TTL-FRAM
100
AcDbLine
370
13
10
33300.0
20
11096.0
30
0.0
11
33300.0
21
10296.0
31
0.0
62
7
0
TEXT
5
227
330
36
100
AcDbEntity
8
C-TTL-FRAM
62
7
100
AcDbText
10
22500.0
20
9499.999
30
0.0
40
400
1
5
41
1.00
7
DimStandard
72
1
11
22500.0
21
9499.999
31
0.0
50
0.0
51
0.0
100
AcDbText
73
1
0
TEXT
5
228
330
36
100
AcDbEntity
8
C-TTL-FRAM
62
7
100
AcDbText
10
27300.0
20
9499.999
30
0.0
40
400
1
5.00
41
1.00
7
DimStandard
72
1
11
27300.0
21
9499.999
31
0.0
50
0.0
51
0.0
100
AcDbText
73
1
0
TEXT
5
229
330
36
100
AcDbEntity
8
C-TTL-FRAM
62
7
100
AcDbText
10
29700.0
20
9499.999
30
0.0
40
400
1
0.50
41
1.00
7
DimStandard
72
1
11
29700.0
21
9499.999
31
0.0
50
0.0
51
0.0
100
AcDbText
73
1
0
TEXT
5
230
330
36
100
AcDbEntity
8
C-TTL-FRAM
62
7
100
AcDbText
10
24900.0
20
9499.999
30
0.0
40
400
1
5.00
41
1.00
7
DimStandard
72
1
11
24900.0
21
9499.999
31
0.0
50
0.0
51
0.0
100
AcDbText
73
1
0
TEXT
5
231
330
36
100
AcDbEntity
8
C-TTL-FRAM
62
7
100
AcDbText
10
32099.998
20
9499.999
30
0.0
40
400
1
1.25
41
1.00
7
DimStandard
72
1
11
32099.998
21
9499.999
31
0.0
50
0.0
51
0.0
100
AcDbText
73
1
0
LINE
5
232
330
36
100
AcDbEntity
8
C-TTL-FRAM
100
AcDbLine
370
13
10
21300.0
20
9495.999
30
0.0
11
33300.0
21
9495.999
31
0.0
62
7
0
LINE
5
233
330
36
100
AcDbEntity
8
C-TTL-FRAM
100
AcDbLine
370
13
10
21300.0
20
10296.0
30
0.0
11
21300.0
21
9495.999
31
0.0
62
7
0
LINE
5
234
330
36
100
AcDbEntity
8
C-TTL-FRAM
100
AcDbLine
370
13
10
33300.0
20
10296.0
30
0.0
11
33300.0
21
9495.999
31
0.0
62
7
0
TEXT
5
235
330
36
100
AcDbEntity
8
C-TTL-FRAM
62
7
100
AcDbText
10
22500.0
20
8699.999
30
0.0
40
400
1
6
41
1.00
7
DimStandard
72
1
11
22500.0
21
8699.999
31
0.0
50
0.0
51
0.0
100
AcDbText
73
1
0
TEXT
5
236
330
36
100
AcDbEntity
8
C-TTL-FRAM
62
7
100
AcDbText
10
27300.0
20
8699.999
30
0.0
40
400
1
3.00
41
1.00
7
DimStandard
72
1
11
27300.0
21
8699.999
31
0.0
50
0.0
51
0.0
100
AcDbText
73
1
0
TEXT
5
237
330
36
100
AcDbEntity
8
C-TTL-FRAM
62
7
100
AcDbText
10
29700.0
20
8699.999
30
0.0
40
400
1
3.00
41
1.00
7
DimStandard
72
1
11
29700.0
21
8699.999
31
0.0
50
0.0
51
0.0
100
AcDbText
73
1
0
TEXT
5
238
330
36
100
AcDbEntity
8
C-TTL-FRAM
62
7
100
AcDbText
10
24900.0
20
8699.999
30
0.0
40
400
1
5.00
41
1.00
7
DimStandard
72
1
11
24900.0
21
8699.999
31
0.0
50
0.0
51
0.0
100
AcDbText
73
1
0
TEXT
5
239
330
36
100
AcDbEntity
8
C-TTL-FRAM
62
7
100
AcDbText
10
32099.998
20
8699.999
30
0.0
40
400
1
4.15
41
1.00
7
DimStandard
72
1
11
32099.998
21
8699.999
31
0.0
50
0.0
51
0.0
100
AcDbText
73
1
0
LINE
5
240
330
36
100
AcDbEntity
8
C-TTL-FRAM
100
AcDbLine
370
13
10
21300.0
20
8695.999
30
0.0
11
33300.0
21
8695.999
31
0.0
62
7
0
LINE
5
241
330
36
100
AcDbEntity
8
C-TTL-FRAM
100
AcDbLine
370
13
10
21300.0
20
9495.999
30
0.0
11
21300.0
21
8695.999
31
0.0
62
7
0
LINE
5
242
330
36
100
AcDbEntity
8
C-TTL-FRAM
100
AcDbLine
370
13
10
33300.0
20
9495.999
30
0.0
11
33300.0
21
8695.999
31
0.0
62
7
0
TEXT
5
243
330
36
100
AcDbEntity
8
C-TTL-FRAM
62
7
100
AcDbText
10
22500.0
20
7899.9985
30
0.0
40
400
1
7
41
1.00
7
DimStandard
72
1
11
22500.0
21
7899.9985
31
0.0
50
0.0
51
0.0
100
AcDbText
73
1
0
TEXT
5
244
330
36
100
AcDbEntity
8
C-TTL-FRAM
62
7
100
AcDbText
10
27300.0
20
7899.9985
30
0.0
40
400
1
3.00
41
1.00
7
DimStandard
72
1
11
27300.0
21
7899.9985
31
0.0
50
0.0
51
0.0
100
AcDbText
73
1
0
TEXT
5
245
330
36
100
AcDbEntity
8
C-TTL-FRAM
62
7
100
AcDbText
10
29700.0
20
7899.9985
30
0.0
40
400
1
0.50
41
1.00
7
DimStandard
72
1
11
29700.0
21
7899.9985
31
0.0
50
0.0
51
0.0
100
AcDbText
73
1
0
TEXT
5
246
330
36
100
AcDbEntity
8
C-TTL-FRAM
62
7
100
AcDbText
10
24900.0
20
7899.9985
30
0.0
40
400
1
3.00
41
1.00
7
DimStandard
72
1
11
24900.0
21
7899.9985
31
0.0
50
0.0
51
0.0
100
AcDbText
73
1
0
TEXT
5
247
330
36
100
AcDbEntity
8
C-TTL-FRAM
62
7
100
AcDbText
10
32099.998
20
7899.9985
30
0.0
40
400
1
0.75
41
1.00
7
DimStandard
72
1
11
32099.998
21
7899.9985
31
0.0
50
0.0
51
0.0
100
AcDbText
73
1
0
LINE
5
248
330
36
100
AcDbEntity
8
C-TTL-FRAM
100
AcDbLine
370
13
10
21300.0
20
7895.9985
30
0.0
11
33300.0
21
7895.9985
31
0.0
62
7
0
LINE
5
249
330
36
100
AcDbEntity
8
C-TTL-FRAM
100
AcDbLine
370
13
10
21300.0
20
8695.999
30
0.0
11
21300.0
21
7895.9985
31
0.0
62
7
0
LINE
5
250
330
36
100
AcDbEntity
8
C-TTL-FRAM
100
AcDbLine
370
13
10
33300.0
20
8695.999
30
0.0
11
33300.0
21
7895.9985
31
0.0
62
7
0
TEXT
5
251
330
36
100
AcDbEntity
8
C-TTL-FRAM
62
7
100
AcDbText
10
22500.0
20
7099.9985
30
0.0
40
400
1
è¨åv(1)
41
1.00
7
DimStandard
72
1
11
22500.0
21
7099.9985
31
0.0
50
0.0
51
0.0
100
AcDbText
73
1
0
TEXT
5
252
330
36
100
AcDbEntity
8
C-TTL-FRAM
62
7
100
AcDbText
10
32099.998
20
7099.9985
30
0.0
40
400
1
37.79
41
1.00
7
DimStandard
72
1
11
32099.998
21
7099.9985
31
0.0
50
0.0
51
0.0
100
AcDbText
73
1
0
LINE
5
253
330
36
100
AcDbEntity
8
C-TTL-FRAM
100
AcDbLine
370
13
10
21300.0
20
7095.998
30
0.0
11
33300.0
21
7095.998
31
0.0
62
7
0
LINE
5
254
330
36
100
AcDbEntity
8
C-TTL-FRAM
100
AcDbLine
370
13
10
21300.0
20
7895.9985
30
0.0
11
21300.0
21
7095.998
31
0.0
62
7
0
LINE
5
255
330
36
100
AcDbEntity
8
C-TTL-FRAM
100
AcDbLine
370
13
10
33300.0
20
7895.9985
30
0.0
11
33300.0
21
7095.998
31
0.0
62
7
0
TEXT
5
256
330
36
100
AcDbEntity
8
C-TTL-FRAM
62
7
100
AcDbText
10
22500.0
20
5499.998
30
0.0
40
400
1
çáåv
41
1.00
7
DimStandard
72
1
11
22500.0
21
5499.998
31
0.0
50
0.0
51
0.0
100
AcDbText
73
1
0
TEXT
5
257
330
36
100
AcDbEntity
8
C-TTL-FRAM
62
7
100
AcDbText
10
32099.998
20
5499.998
30
0.0
40
400
1
37.79
41
1.00
7
DimStandard
72
1
11
32099.998
21
5499.998
31
0.0
50
0.0
51
0.0
100
AcDbText
73
1
0
LINE
5
258
330
36
100
AcDbEntity
8
C-TTL-FRAM
100
AcDbLine
370
13
10
21300.0
20
5495.998
30
0.0
11
33300.0
21
5495.998
31
0.0
62
7
0
LINE
5
259
330
36
100
AcDbEntity
8
C-TTL-FRAM
100
AcDbLine
370
13
10
21300.0
20
7095.998
30
0.0
11
21300.0
21
5495.998
31
0.0
62
7
0
LINE
5
260
330
36
100
AcDbEntity
8
C-TTL-FRAM
100
AcDbLine
370
13
10
33300.0
20
7095.998
30
0.0
11
33300.0
21
5495.998
31
0.0
62
7
0
ENDSEC
  0
SECTION
  2
OBJECTS
  0
DICTIONARY
  5
C
330
0
100
AcDbDictionary
281
     1
  3
ACAD_COLOR
350
2F
  3
ACAD_GROUP
350
D
  3
ACAD_LAYOUT
350
2E
  3
ACAD_MATERIAL
350
10
  3
ACAD_MLINESTYLE
350
2B
  3
ACAD_PLOTSETTINGS
350
2D
  3
ACAD_PLOTSTYLENAME
350
E
  3
ACAD_TABLESTYLE
350
30
  3
ACAD_VISUALSTYLE
350
14
  3
AcDbVariableDictionary
350
6A
  3
DWGPROPS
350
81
  0
DICTIONARY
  5
2F
102
{ACAD_REACTORS
330
C
102
}
330
C
100
AcDbDictionary
281
     1
  0
DICTIONARY
  5
D
102
{ACAD_REACTORS
330
C
102
}
330
C
100
AcDbDictionary
281
     1
  0
DICTIONARY
  5
2E
102
{ACAD_REACTORS
330
C
102
}
330
C
100
AcDbDictionary
281
     1
  3
Model
350
39
  3
ÉåÉCÉAÉEÉg1
350
35
  0
DICTIONARY
  5
10
102
{ACAD_REACTORS
330
C
102
}
330
C
100
AcDbDictionary
281
     1
  3
ByBlock
350
12
  3
ByLayer
350
11
  3
Global
350
13
  0
DICTIONARY
  5
2B
102
{ACAD_REACTORS
330
C
102
}
330
C
100
AcDbDictionary
281
     1
  3
Standard
350
2C
  0
DICTIONARY
  5
2D
102
{ACAD_REACTORS
330
C
102
}
330
C
100
AcDbDictionary
281
     1
  0
ACDBDICTIONARYWDFLT
  5
E
102
{ACAD_REACTORS
330
C
102
}
330
C
100
AcDbDictionary
281
     1
  3
Normal
350
F
100
AcDbDictionaryWithDefault
340
F
  0
DICTIONARY
  5
30
102
{ACAD_REACTORS
330
C
102
}
330
C
100
AcDbDictionary
281
     1
  3
Standard
350
31
  0
DICTIONARY
  5
14
102
{ACAD_REACTORS
330
C
102
}
330
C
100
AcDbDictionary
281
     1
  3
2dWireframe
350
1A
  3
3D Hidden
350
1C
  3
3dWireframe
350
1B
  3
Basic
350
19
  3
Brighten
350
20
  3
ColorChange
350
24
  3
Conceptual
350
1D
  3
Dim
350
1F
  3
Facepattern
350
23
  3
Flat
350
15
  3
FlatWithEdges
350
16
  3
Gouraud
350
17
  3
GouraudWithEdges
350
18
  3
Linepattern
350
22
  3
Realistic
350
1E
  3
Thicken
350
21
  0
DICTIONARY
  5
6A
102
{ACAD_REACTORS
330
C
102
}
330
C
100
AcDbDictionary
281
     1
  3
CTABLESTYLE
350
6B
  3
DIMASSOC
350
6E
  3
INDEXCTL
350
6D
  3
SORTENTS
350
6C
  0
XRECORD
  5
81
102
{ACAD_REACTORS
330
C
102
}
330
C
100
AcDbXrecord
280
     1
  1
DWGPROPS COOKIE
  2

  3

  4

  6

  7

  8
éOóY
  9

300
=
301
=
302
=
303
=
304
=
305
=
306
=
307
=
308
=
309
=
 40
0.0014492592592593
 41
2459198.769561898
 42
2459198.771185336
  1

 90
        0
  0
LAYOUT
  5
39
102
{ACAD_XDICTIONARY
360
86
102
}
102
{ACAD_REACTORS
330
2E
102
}
330
2E
100
AcDbPlotSettings
  1

  2
Canon MG6200 series
  4

  6

 40
0.0
 41
0.0
 42
0.0
 43
0.0
 44
0.0
 45
0.0
 46
0.0
 47
0.0
 48
0.0
 49
0.0
140
0.0
141
0.0
142
1.0
143
1.0
 70
  1712
 72
     0
 73
     0
 74
     0
  7

 75
     0
147
1.0
148
0.0
149
0.0
100
AcDbLayout
  1
Model
 70
     1
 71
     0
 10
0.0
 20
0.0
 11
12.0
 21
9.0
 12
0.0
 22
0.0
 32
0.0
 14
0.0
 24
0.0
 34
0.0
 15
0.0
 25
0.0
 35
0.0
146
0.0
 13
0.0
 23
0.0
 33
0.0
 16
1.0
 26
0.0
 36
0.0
 17
0.0
 27
1.0
 37
0.0
 76
     0
330
36
331
3A
  0
LAYOUT
  5
35
102
{ACAD_XDICTIONARY
360
84
102
}
102
{ACAD_REACTORS
330
2E
102
}
330
2E
100
AcDbPlotSettings
  1

  2
Canon MG6200 series
  4

  6

 40
0.0
 41
0.0
 42
0.0
 43
0.0
 44
0.0
 45
0.0
 46
0.0
 47
0.0
 48
0.0
 49
0.0
140
0.0
141
0.0
142
1.0
143
1.0
 70
   688
 72
     0
 73
     0
 74
     5
  7

 75
    16
147
1.0
148
0.0
149
0.0
100
AcDbLayout
  1
ÉåÉCÉAÉEÉg1
 70
     1
 71
     1
 10
0.0
 20
0.0
 11
12.0
 21
9.0
 12
0.0
 22
0.0
 32
0.0
 14
1.000000000000000E+20
 24
1.000000000000000E+20
 34
1.000000000000000E+20
 15
-1.000000000000000E+20
 25
-1.000000000000000E+20
 35
-1.000000000000000E+20
146
0.0
 13
0.0
 23
0.0
 33
0.0
 16
1.0
 26
0.0
 36
0.0
 17
0.0
 27
1.0
 37
0.0
 76
     0
330
32
  0
MATERIAL
  5
12
102
{ACAD_XDICTIONARY
360
72
102
}
102
{ACAD_REACTORS
330
10
102
}
330
10
100
AcDbMaterial
  1
ByBlock
  0
MATERIAL
  5
11
102
{ACAD_XDICTIONARY
360
70
102
}
102
{ACAD_REACTORS
330
10
102
}
330
10
100
AcDbMaterial
  1
ByLayer
  0
MATERIAL
  5
13
102
{ACAD_XDICTIONARY
360
74
102
}
102
{ACAD_REACTORS
330
10
102
}
330
10
100
AcDbMaterial
  1
Global
  0
MLINESTYLE
  5
2C
102
{ACAD_REACTORS
330
2B
102
}
330
2B
100
AcDbMlineStyle
  2
STANDARD
 70
     0
  3

 62
   256
 51
90.0
 52
90.0
 71
     2
 49
0.5
 62
   256
  6
BYLAYER
 49
-0.5
 62
   256
  6
BYLAYER
  0
ACDBPLACEHOLDER
  5
F
102
{ACAD_REACTORS
330
E
102
}
330
E
  0
TABLESTYLE
  5
31
102
{ACAD_XDICTIONARY
360
82
102
}
102
{ACAD_REACTORS
330
30
102
}
330
30
100
AcDbTableStyle
  3
Standard
 70
     0
 71
     0
 40
0.06
 41
0.06
280
     0
281
     0
  7
Standard
140
0.18
170
     2
 62
     0
 63
     7
283
     0
274
    -2
284
     1
 64
     0
275
    -2
285
     1
 65
     0
276
    -2
286
     1
 66
     0
277
    -2
287
     1
 67
     0
278
    -2
288
     1
 68
     0
279
    -2
289
     1
 69
     0
  7
Standard
140
0.25
170
     5
 62
     0
 63
     7
283
     0
274
    -2
284
     1
 64
     0
275
    -2
285
     1
 65
     0
276
    -2
286
     1
 66
     0
277
    -2
287
     1
 67
     0
278
    -2
288
     1
 68
     0
279
    -2
289
     1
 69
     0
  7
Standard
140
0.18
170
     5
 62
     0
 63
     7
283
     0
274
    -2
284
     1
 64
     0
275
    -2
285
     1
 65
     0
276
    -2
286
     1
 66
     0
277
    -2
287
     1
 67
     0
278
    -2
288
     1
 68
     0
279
    -2
289
     1
 69
     0
  0
VISUALSTYLE
  5
1A
102
{ACAD_REACTORS
330
14
102
}
330
14
100
AcDbVisualStyle
  2
2dWireframe
 70
     4
 71
     0
 72
     2
 73
     0
 90
        0
 40
-0.6
 41
-30.0
 62
     5
 63
     7
 74
     1
 91
        4
 64
     7
 65
   257
 75
     1
175
     1
 42
1.0
 92
        0
 66
   257
 43
1.0
 76
     1
 77
     6
 78
     2
 67
     7
 79
     5
170
     0
171
     0
290
     0
174
     0
 93
        1
 44
0.0
173
     0
291
     0
 45
0.0
1001
ACAD
1000
AcDbSavedByObjectVersion
1070
     0
1000
AcDbSavedByObjectVersion
1070
     0
  0
VISUALSTYLE
  5
1C
102
{ACAD_REACTORS
330
14
102
}
330
14
100
AcDbVisualStyle
  2
3D Hidden
 70
     6
 71
     1
 72
     2
 73
     2
 90
        0
 40
-0.6
 41
-30.0
 62
     5
 63
     7
 74
     2
 91
        2
 64
     7
 65
   257
 75
     2
175
     1
 42
40.0
 92
        0
 66
   257
 43
1.0
 76
     1
 77
     6
 78
     2
 67
     7
 79
     3
170
     0
171
     0
290
     0
174
     0
 93
        1
 44
0.0
173
     0
291
     0
 45
0.0
1001
ACAD
1000
AcDbSavedByObjectVersion
1070
     0
1000
AcDbSavedByObjectVersion
1070
     0
  0
VISUALSTYLE
  5
1B
102
{ACAD_REACTORS
330
14
102
}
330
14
100
AcDbVisualStyle
  2
3dWireframe
 70
     5
 71
     0
 72
     2
 73
     0
 90
        0
 40
-0.6
 41
-30.0
 62
     5
 63
     7
 74
     1
 91
        4
 64
     7
 65
   257
 75
     1
175
     1
 42
1.0
 92
        0
 66
   257
 43
1.0
 76
     1
 77
     6
 78
     2
 67
     7
 79
     5
170
     0
171
     0
290
     0
174
     0
 93
        1
 44
0.0
173
     0
291
     0
 45
0.0
1001
ACAD
1000
AcDbSavedByObjectVersion
1070
     0
1000
AcDbSavedByObjectVersion
1070
     0
  0
VISUALSTYLE
  5
19
102
{ACAD_REACTORS
330
14
102
}
330
14
100
AcDbVisualStyle
  2
Basic
 70
     7
 71
     1
 72
     0
 73
     1
 90
        0
 40
-0.6
 41
-30.0
 62
     5
 63
     7
 74
     0
 91
        4
 64
     7
 65
   257
 75
     1
175
     1
 42
1.0
 92
        8
 66
     7
 43
1.0
 76
     1
 77
     6
 78
     2
 67
     7
 79
     5
170
     0
171
     0
290
     0
174
     0
 93
        1
 44
0.0
173
     0
291
     1
 45
0.0
1001
ACAD
1000
AcDbSavedByObjectVersion
1070
     0
1000
AcDbSavedByObjectVersion
1070
     0
  0
VISUALSTYLE
  5
20
102
{ACAD_REACTORS
330
14
102
}
330
14
100
AcDbVisualStyle
  2
Brighten
 70
    12
 71
     2
 72
     2
 73
     0
 90
        0
 40
-0.6
 41
-30.0
 62
     5
 63
     7
 74
     1
 91
        4
 64
     7
 65
   257
 75
     1
175
     1
 42
1.0
 92
        8
 66
     7
 43
1.0
 76
     1
 77
     6
 78
     2
 67
     7
 79
     5
170
     0
171
     0
290
     0
174
     0
 93
        1
 44
50.0
173
     0
291
     1
 45
0.0
1001
ACAD
1000
AcDbSavedByObjectVersion
1070
     0
1000
AcDbSavedByObjectVersion
1070
     0
  0
VISUALSTYLE
  5
24
102
{ACAD_REACTORS
330
14
102
}
330
14
100
AcDbVisualStyle
  2
ColorChange
 70
    16
 71
     2
 72
     2
 73
     3
 90
        0
 40
-0.6
 41
-30.0
 62
     5
 63
     8
 74
     1
 91
        4
 64
     7
 65
   257
 75
     1
175
     1
 42
1.0
 92
        8
 66
     8
 43
1.0
 76
     1
 77
     6
 78
     2
 67
     7
 79
     5
170
     0
171
     0
290
     0
174
     0
 93
        1
 44
0.0
173
     0
291
     1
 45
0.0
1001
ACAD
1000
AcDbSavedByObjectVersion
1070
     0
1000
AcDbSavedByObjectVersion
1070
     0
  0
VISUALSTYLE
  5
1D
102
{ACAD_REACTORS
330
14
102
}
330
14
100
AcDbVisualStyle
  2
Conceptual
 70
     9
 71
     3
 72
     2
 73
     0
 90
        0
 40
-0.6
 41
-30.0
 62
     5
 63
     7
 74
     2
 91
        2
 64
     7
 65
   257
 75
     1
175
     1
 42
40.0
 92
        8
 66
     7
 43
1.0
 76
     1
 77
     6
 78
     2
 67
     7
 79
     3
170
     0
171
     0
290
     0
174
     0
 93
        1
 44
0.0
173
     0
291
     0
 45
0.0
1001
ACAD
1000
AcDbSavedByObjectVersion
1070
     0
1000
AcDbSavedByObjectVersion
1070
     0
  0
VISUALSTYLE
  5
1F
102
{ACAD_REACTORS
330
14
102
}
330
14
100
AcDbVisualStyle
  2
Dim
 70
    11
 71
     2
 72
     2
 73
     0
 90
        0
 40
-0.6
 41
-30.0
 62
     5
 63
     7
 74
     1
 91
        4
 64
     7
 65
   257
 75
     1
175
     1
 42
1.0
 92
        8
 66
     7
 43
1.0
 76
     1
 77
     6
 78
     2
 67
     7
 79
     5
170
     0
171
     0
290
     0
174
     0
 93
        1
 44
-50.0
173
     0
291
     1
 45
0.0
1001
ACAD
1000
AcDbSavedByObjectVersion
1070
     0
1000
AcDbSavedByObjectVersion
1070
     0
  0
VISUALSTYLE
  5
23
102
{ACAD_REACTORS
330
14
102
}
330
14
100
AcDbVisualStyle
  2
Facepattern
 70
    15
 71
     2
 72
     2
 73
     0
 90
        0
 40
-0.6
 41
-30.0
 62
     5
 63
     7
 74
     1
 91
        4
 64
     7
 65
   257
 75
     1
175
     1
 42
1.0
 92
        8
 66
     7
 43
1.0
 76
     1
 77
     6
 78
     2
 67
     7
 79
     5
170
     0
171
     0
290
     0
174
     0
 93
        1
 44
0.0
173
     0
291
     1
 45
0.0
1001
ACAD
1000
AcDbSavedByObjectVersion
1070
     0
1000
AcDbSavedByObjectVersion
1070
     0
  0
VISUALSTYLE
  5
15
102
{ACAD_REACTORS
330
14
102
}
330
14
100
AcDbVisualStyle
  2
Flat
 70
     0
 71
     2
 72
     1
 73
     1
 90
        2
 40
-0.6
 41
30.0
 62
     5
 63
     7
 74
     0
 91
        4
 64
     7
 65
   257
 75
     1
175
     1
 42
1.0
 92
        8
 66
     7
 43
1.0
 76
     1
 77
     6
 78
     2
 67
     7
 79
     5
170
     0
171
     0
290
     0
174
     0
 93
       13
 44
0.0
173
     0
291
     1
 45
0.0
1001
ACAD
1000
AcDbSavedByObjectVersion
1070
     0
1000
AcDbSavedByObjectVersion
1070
     0
  0
VISUALSTYLE
  5
16
102
{ACAD_REACTORS
330
14
102
}
330
14
100
AcDbVisualStyle
  2
FlatWithEdges
 70
     1
 71
     2
 72
     1
 73
     1
 90
        2
 40
-0.6
 41
30.0
 62
     5
 63
     7
 74
     1
 91
        4
 64
     7
 65
   257
 75
     1
175
     1
 42
1.0
 92
        0
 66
   257
 43
1.0
 76
     1
 77
     6
 78
     2
 67
     7
 79
     5
170
     0
171
     0
290
     0
174
     0
 93
       13
 44
0.0
173
     0
291
     1
 45
0.0
1001
ACAD
1000
AcDbSavedByObjectVersion
1070
     0
1000
AcDbSavedByObjectVersion
1070
     0
  0
VISUALSTYLE
  5
17
102
{ACAD_REACTORS
330
14
102
}
330
14
100
AcDbVisualStyle
  2
Gouraud
 70
     2
 71
     2
 72
     2
 73
     1
 90
        2
 40
-0.6
 41
30.0
 62
     5
 63
     7
 74
     0
 91
        4
 64
     7
 65
   257
 75
     1
175
     1
 42
1.0
 92
        0
 66
     7
 43
1.0
 76
     1
 77
     6
 78
     2
 67
     7
 79
     5
170
     0
171
     0
290
     0
174
     0
 93
       13
 44
0.0
173
     0
291
     1
 45
0.0
1001
ACAD
1000
AcDbSavedByObjectVersion
1070
     0
1000
AcDbSavedByObjectVersion
1070
     0
  0
VISUALSTYLE
  5
18
102
{ACAD_REACTORS
330
14
102
}
330
14
100
AcDbVisualStyle
  2
GouraudWithEdges
 70
     3
 71
     2
 72
     2
 73
     1
 90
        2
 40
-0.6
 41
30.0
 62
     5
 63
     7
 74
     1
 91
        4
 64
     7
 65
   257
 75
     1
175
     1
 42
1.0
 92
        0
 66
   257
 43
1.0
 76
     1
 77
     6
 78
     2
 67
     7
 79
     5
170
     0
171
     0
290
     0
174
     0
 93
       13
 44
0.0
173
     0
291
     1
 45
0.0
1001
ACAD
1000
AcDbSavedByObjectVersion
1070
     0
1000
AcDbSavedByObjectVersion
1070
     0
  0
VISUALSTYLE
  5
22
102
{ACAD_REACTORS
330
14
102
}
330
14
100
AcDbVisualStyle
  2
Linepattern
 70
    14
 71
     2
 72
     2
 73
     0
 90
        0
 40
-0.6
 41
-30.0
 62
     5
 63
     7
 74
     1
 91
        4
 64
     7
 65
   257
 75
     7
175
     7
 42
1.0
 92
        8
 66
     7
 43
1.0
 76
     1
 77
     6
 78
     2
 67
     7
 79
     5
170
     0
171
     0
290
     0
174
     0
 93
        1
 44
0.0
173
     0
291
     1
 45
0.0
1001
ACAD
1000
AcDbSavedByObjectVersion
1070
     0
1000
AcDbSavedByObjectVersion
1070
     0
  0
VISUALSTYLE
  5
1E
102
{ACAD_REACTORS
330
14
102
}
330
14
100
AcDbVisualStyle
  2
Realistic
 70
     8
 71
     2
 72
     2
 73
     0
 90
        0
 40
-0.6
 41
-30.0
 62
     5
 63
     7
 74
     1
 91
        0
 64
     7
 65
   257
 75
     1
175
     1
 42
1.0
 92
        8
 66
     8
 43
1.0
 76
     1
 77
     6
 78
     2
 67
     7
 79
     5
170
     0
171
     0
290
     0
174
     0
 93
       13
 44
0.0
173
     0
291
     0
 45
0.0
1001
ACAD
1000
AcDbSavedByObjectVersion
1070
     0
1000
AcDbSavedByObjectVersion
1070
     0
  0
VISUALSTYLE
  5
21
102
{ACAD_REACTORS
330
14
102
}
330
14
100
AcDbVisualStyle
  2
Thicken
 70
    13
 71
     2
 72
     2
 73
     0
 90
        0
 40
-0.6
 41
-30.0
 62
     5
 63
     7
 74
     1
 91
        4
 64
     7
 65
   257
 75
     1
175
     1
 42
1.0
 92
       12
 66
     7
 43
1.0
 76
     1
 77
     6
 78
     2
 67
     7
 79
     5
170
     0
171
     0
290
     0
174
     0
 93
        1
 44
0.0
173
     0
291
     1
 45
0.0
1001
ACAD
1000
AcDbSavedByObjectVersion
1070
     0
1000
AcDbSavedByObjectVersion
1070
     0
  0
DICTIONARYVAR
  5
6B
102
{ACAD_REACTORS
330
6A
102
}
330
6A
100
DictionaryVariables
280
     0
  1
STANDARD
  0
DICTIONARYVAR
  5
6E
102
{ACAD_REACTORS
330
6A
102
}
330
6A
100
DictionaryVariables
280
     0
  1
1
  0
DICTIONARYVAR
  5
6D
102
{ACAD_REACTORS
330
6A
102
}
330
6A
100
DictionaryVariables
280
     0
  1
0
  0
DICTIONARYVAR
  5
6C
102
{ACAD_REACTORS
330
6A
102
}
330
6A
100
DictionaryVariables
280
     0
  1
127
  0
DICTIONARY
  5
86
330
39
100
AcDbDictionary
280
     1
281
     1
  3
ACAD_XREC_ROUNDTRIP
360
87
  0
DICTIONARY
  5
84
330
35
100
AcDbDictionary
280
     1
281
     1
  3
ACAD_XREC_ROUNDTRIP
360
85
  0
DICTIONARY
  5
72
330
12
100
AcDbDictionary
280
     1
281
     1
  3
ACAD_XREC_ROUNDTRIP
360
73
  0
DICTIONARY
  5
70
330
11
100
AcDbDictionary
280
     1
281
     1
  3
ACAD_XREC_ROUNDTRIP
360
71
  0
DICTIONARY
  5
74
330
13
100
AcDbDictionary
280
     1
281
     1
  3
ACAD_XREC_ROUNDTRIP
360
75
  0
DICTIONARY
  5
82
330
31
100
AcDbDictionary
280
     1
281
     1
  3
ACAD_XREC_ROUNDTRIP
360
83
  0
XRECORD
  5
87
102
{ACAD_REACTORS
330
86
102
}
330
86
100
AcDbXrecord
280
     1
102
SHADEPLOT
 70
     0
102
SHADEPLOTRESLEVEL
 70
     2
102
SHADEPLOTCUSTOMDPI
 70
   300
  0
XRECORD
  5
85
102
{ACAD_REACTORS
330
84
102
}
330
84
100
AcDbXrecord
280
     1
102
SHADEPLOT
 70
     0
102
SHADEPLOTRESLEVEL
 70
     2
102
SHADEPLOTCUSTOMDPI
 70
   300
  0
XRECORD
  5
73
102
{ACAD_REACTORS
330
72
102
}
330
72
100
AcDbXrecord
280
     1
102
MATERIAL
148
0.0
149
0.0
149
0.0
 93
        0
 94
       63
282
     0
 72
     1
 77
     1
171
     1
175
     1
179
     1
273
     0
  0
XRECORD
  5
71
102
{ACAD_REACTORS
330
70
102
}
330
70
100
AcDbXrecord
280
     1
102
MATERIAL
148
0.0
149
0.0
149
0.0
 93
        0
 94
       63
282
     0
 72
     1
 77
     1
171
     1
175
     1
179
     1
273
     0
  0
XRECORD
  5
75
102
{ACAD_REACTORS
330
74
102
}
330
74
100
AcDbXrecord
280
     1
102
MATERIAL
148
0.0
149
0.0
149
0.0
 93
        0
 94
       63
282
     0
 72
     1
 77
     1
171
     1
175
     1
179
     1
273
     0
  0
XRECORD
  5
83
102
{ACAD_REACTORS
330
82
102
}
330
82
100
AcDbXrecord
280
     1
102
ACAD_ROUNDTRIP_PRE2007_TABLESTYLE
 90
      512
 91
        0
  1

 92
      512
 93
        0
  2

 94
      512
 95
        0
  3

  0
ENDSEC
0
EOF
